<svg width="360pt" height="504pt" viewBox="0 0 360 504" xmlns="http://www.w3.org/2000/svg">
    <!-- Guides for Margins (Optional, remove before print) -->
    <rect x="36" y="36" width="270" height="423" fill="none" stroke="#ccc" stroke-dasharray="4"/>
    
    <!-- Title -->
    <text x="171" y="70" font-family="Arial" font-size="14" font-weight="bold" fill="#8B0000" text-anchor="middle">MORNING WATCH</text>
    <line x1="36" y1="80" x2="306" y2="80" stroke="black" stroke-width="2"/>
    
    <!-- H.A.L.T Check -->
    <g transform="translate(36, 110)">
        <text x="0" y="10" font-family="Garamond" font-size="11" fill="black" font-weight="bold">H.A.L.T.:</text>
        <rect x="60" y="0" width="10" height="10" fill="none" stroke="black" stroke-width="1"/> <text x="75" y="10" font-family="Garamond" font-size="11" fill="black">Hungry</text>
        <rect x="120" y="0" width="10" height="10" fill="none" stroke="black" stroke-width="1"/> <text x="135" y="10" font-family="Garamond" font-size="11" fill="black">Angry</text>
        <rect x="175" y="0" width="10" height="10" fill="none" stroke="black" stroke-width="1"/> <text x="190" y="10" font-family="Garamond" font-size="11" fill="black">Lonely</text>
        <rect x="230" y="0" width="10" height="10" fill="none" stroke="black" stroke-width="1"/> <text x="245" y="10" font-family="Garamond" font-size="11" fill="black">Tired</text>
    </g>
    
    <!-- Section 1 -->
    <g transform="translate(36, 150)">
        <text x="0" y="0" font-family="Arial" font-size="12" font-weight="bold" fill="#8B0000" text-anchor="start">1. PRIMARY OBJECTIVE</text>
        <text x="0" y="20" font-family="Garamond" font-size="11" fill="black">What is the ONE thing that makes today successful?</text>
        <line x1="0" y1="40" x2="270" y2="40" stroke="black" stroke-width="1"/>
        <line x1="0" y1="65" x2="270" y2="65" stroke="black" stroke-width="1"/>
    </g>
    
    <!-- Section 2 -->
    <g transform="translate(36, 240)">
        <text x="0" y="0" font-family="Arial" font-size="12" font-weight="bold" fill="#8B0000" text-anchor="start">2. THREAT ASSESSMENT</text>
        <text x="0" y="20" font-family="Garamond" font-size="11" fill="black">Where are the traps? (Calendar, events, triggers)</text>
        <line x1="0" y1="40" x2="270" y2="40" stroke="black" stroke-width="1"/>
        <line x1="0" y1="65" x2="270" y2="65" stroke="black" stroke-width="1"/>
    </g>
    
    <!-- Section 3 -->
    <g transform="translate(36, 330)">
        <text x="0" y="0" font-family="Arial" font-size="12" font-weight="bold" fill="#8B0000" text-anchor="start">3. PASSENGER ALERT</text>
        <text x="0" y="20" font-family="Garamond" font-size="11" fill="black">What is the resistance telling you right now?</text>
        <line x1="0" y1="40" x2="270" y2="40" stroke="black" stroke-width="1"/>
        <line x1="0" y1="65" x2="270" y2="65" stroke="black" stroke-width="1"/>
    </g>
    
    </svg>